<svg id="Capa_1" enable-background="new 0 0 511.164 511.164" height="512" viewBox="0 0 511.164 511.164" width="512" xmlns="http://www.w3.org/2000/svg"><g id="XMLID_75_"><path id="XMLID_88_" d="m453.279 420.893-105.19-29.391 21.851 115.584h141.224z" fill="#ffaf37"/><path id="XMLID_86_" d="m205.148 403.361h30v71.394h-30z" fill="#ffd400"/><path id="XMLID_246_" d="m220.148 403.361h15v71.394h-15z" fill="#ffaf37"/><path id="XMLID_78_" d="m272.449 508.899h-30c0-12.297-10.004-22.301-22.301-22.301s-22.301 10.004-22.301 22.301h-30c0-28.839 23.462-52.301 52.301-52.301s52.301 23.462 52.301 52.301z" fill="#fff1b3"/><path id="XMLID_87_" d="m0 105.6h58.407v30h-58.407z" fill="#ffaf37"/><path id="XMLID_80_" d="m213.071 44.779c-17.001-26.621-46.009-42.514-77.595-42.514-50.767 0-92.069 41.302-92.069 92.07v148.264c0 98.312 79.982 178.294 178.294 178.294h231.579z" fill="#fff1b3"/><path id="XMLID_1003_" d="m220.148 55.859v365.014c.518.004 1.034.02 1.553.02h231.579z" fill="#ffe898"/><path id="XMLID_680_" d="m387.29 317.559h-83.62c-46.05 0-83.52-37.47-83.52-83.52v-178.17z" fill="#ffaf37"/><path id="XMLID_81_" d="m125.799 119.875c7.846 0 15.363-6.899 15-15-.364-8.127-6.591-15-15-15-7.846 0-15.363 6.899-15 15 .364 8.127 6.59 15 15 15z" fill="#9facb9"/><path id="XMLID_289_" d="m220.148 456.597v30c12.297 0 22.301 10.004 22.301 22.301h30c0-28.838-23.462-52.301-52.301-52.301z" fill="#ffe898"/></g></svg>